<svg xmlns="http://www.w3.org/2000/svg" width="130.237" height="162.178" viewBox="-102.619 -41.589 130.237 162.178"><path fill="none" stroke="#5237EC" stroke-width="12.178" stroke-linecap="round" stroke-linejoin="round" d="M-51.54-35.5H9.352	c6.726,0,12.178,5.453,12.178,12.179v97.426c0,6.719-5.452,12.177-12.178,12.177H-51.54c-6.726,0-12.178-5.458-12.178-12.177	v-97.426C-63.718-30.047-58.266-35.5-51.54-35.5z"/><path fill="none" stroke="#E1DBFF" stroke-width="12.178" stroke-linecap="round" stroke-linejoin="round" d="M-5.348,103.742	l-59.966,10.571c-6.625,1.166-12.946-3.258-14.111-9.882L-96.343,8.486c-1.166-6.618,3.255-12.939,9.876-14.111"/><path fill="#5237EC" d="M-20.625,1.619l-6.821,4.043l-6.82-4.043l-6.826,4.043l-6.821-4.043l13.647-18.173L-20.625,1.619z"/><path fill="#5237EC" d="M-34.266,2.284l4.543,12.672h-9.092L-34.266,2.284z"/></svg>