<svg xmlns="http://www.w3.org/2000/svg" width="128" height="128" viewBox="0 0 128 128"><linearGradient id="a" gradientUnits="userSpaceOnUse" x1="64.001" y1="128" x2="64.001"><stop offset="0" stop-color="#D11A7D"/><stop offset="1" stop-color="#EC3962"/></linearGradient><path fill="url(#a)" d="M64,0C28.654,0,0,28.654,0,64c0,35.347,28.654,64,64,64c19.566,0,64,0,64,0s0-48.221,0-64	C128,28.654,99.347,0,64,0z M64.006,118.741c-28.993,0-53.091-22.508-55.049-51.255c-0.122-1.468,0.734-2.936,2.202-3.548	c1.346-0.612,3.058-0.367,4.159,0.734c7.217,7.217,16.025,11.132,24.833,11.132c19.573,0,35.354-15.903,35.354-35.354	c0-8.93-3.915-17.737-11.132-24.955c-1.102-1.101-1.346-2.691-0.734-4.037c0.612-1.346,2.08-2.202,3.548-2.202	c29.114,1.59,51.867,25.689,51.867,54.681C119.054,94.153,94.344,118.741,64.006,118.741z"/></svg>
