<svg xmlns="http://www.w3.org/2000/svg" viewBox="-78.651 -73.715 171.43 171.43"><circle fill="none" stroke="#5237EC" stroke-width="14.286" stroke-linecap="round" stroke-linejoin="round" cx="-13.183" cy="12" r="50"/><path fill="none" stroke="#5237EC" stroke-width="14.286" stroke-linecap="round" stroke-linejoin="round" d="M-13.183-9.429L-13.183 12-2.469 22.713M19.03 50.211l-2.497 27.357C15.863 84.955 9.655 90.6 2.247 90.57h-30.929c-7.415.029-13.62-5.615-14.286-13.002l-2.5-27.357M-45.395-26.215l2.497-27.358c.666-7.355 6.829-12.992 14.216-12.999H2.387c7.415-.032 13.616 5.615 14.285 12.999l2.505 27.358"/><path fill="none" stroke="#E1DBFF" stroke-width="14.286" stroke-linecap="round" stroke-linejoin="round" d="M59.669-26.215C71.094-17.051 77.31-3.787 77.31 12c0 14.698-7.693 29.065-17.787 38.213M59.522 50.213L57.025 77.57c-.67 7.387-6.878 13.029-14.286 13.002M42.879-66.572c7.415-.032 13.616 5.615 14.285 12.999l2.505 27.358"/></svg>
