<svg version="1" xmlns="http://www.w3.org/2000/svg" width="757.333" height="757.333" viewBox="0 0 568.000000 568.000000"><path d="M271.8 7.5c-.2.2-2.1.6-4.3.9-5.7.7-9 1.5-12.2 2.7-1.6.6-2.9 1-3 1-.3-.1-.9 0-2 .4-.5.2-1.8.6-3.1 1-11.9 3.9-27.9 14.2-38.7 25.1-12.6 12.7-24.3 32-27 44.8-.3 1-.9 3.3-1.4 5-1.9 6-2.4 11.2-2.5 24.6-.1 12.2.8 23.2 2.1 25.3.2.4.6 2 .9 3.5.6 3.6 6.2 17.6 9.2 23.2 9.7 17.6 25.5 33.5 42.7 42.9 6.8 3.8 19.4 8.8 24.1 9.7l3.2.6v9.8c0 5.4.3 10.3.6 10.9.4.6.4 1.1-.1 1.1-.9 0-.8 36.2.1 38.5.3.8.2 1.5-.2 1.5-.8 0-.7 20.3.2 22.5.3.8.2 1.5-.2 1.5-.8 0-.7 20.3.2 22.5.3.8.2 1.5-.2 1.5-.8 0-.7 20.3.2 22.5.3.8.2 1.5-.2 1.5-.8 0-.7 20.3.2 22.5.3.8.2 1.5-.2 1.5s-.6 3.3-.6 7.2l.2 7.3H0v68.1c0 58.7.3 69 1.6 73.6 4 13.5 13.6 23.3 27.8 28.1C34 561.9 53.3 562 284 562c242.2 0 249.9-.1 255.1-1.9 8.7-3 11.7-5 18.6-12.1 3.9-4 5.7-7.2 8.4-14.8 1.8-5.1 1.8-9 1.6-74l-.2-68.7-58.5-.1c-32.2-.1-59.1-.2-59.7-.3-.9-.1-1.2-3.1-1.2-11.4v-14.4l-.1-3.2-33.5-.1H381l-.1 2.7c0 1.6-.2 8.2-.2 14.8l-.2 12h-72l-.3-3.3c-.3-3.9-.3-2.9-.3-23.7 0-21.6.1-25.7.7-26.6.2-.4 0-1-.6-1.4-.6-.4-.8-1.1-.4-1.6.3-.6.6-26.9.6-58.5 0-45.9.3-57.4 1.3-57.4 2.7 0 16.6-5.2 23.2-8.7 11-5.8 11.6-6.1 12.2-7 .3-.4 2.4-2.1 4.6-3.8 17.4-12.8 33.2-36.6 38.1-57.6 3.2-13.5 4-33 1.9-45.4-.9-5.3-4.1-16.4-6.2-21.2-.9-2.1-1.7-4-1.8-4.3-.5-1.8-3.3-7.1-5.7-10.7-1.5-2.3-2.8-4.5-2.8-4.9 0-1.2-9.1-11.7-15.7-18.1-14.5-13.9-34.1-23.8-55.3-27.9-3.7-.7-29.6-1.5-30.2-.9zm28.6 57.4c7.3 2.6 12.8 5.8 18.3 10.6 4.5 3.9 12.3 14.6 12.3 16.8 0 .7.4 1.7 1 2.3 3.6 3.6 4.7 25.3 1.6 34.9-3.8 12.1-14.7 25.1-25.7 30.7-20 10.3-45.8 6.1-61-9.9-3.8-4-11.4-15.3-10.3-15.3.4 0 .2-.6-.5-1.3-2.1-2.6-4.1-14.2-3.6-21.7.5-10.1 1-12.3 5.1-20.7 6.3-13.3 20.1-24.3 34.5-27.7 7.6-1.8 21.1-1.2 28.3 1.3zm212.4 411.4l.2 30.7H55v-30.4c0-19.5.4-30.6 1-30.8.6-.2 103.5-.3 228.8-.3h227.7l.3 30.8z"/></svg>