<?xml version="1.0" standalone="no"?>
<!DOCTYPE svg PUBLIC "-//W3C//DTD SVG 20010904//EN"
 "http://www.w3.org/TR/2001/REC-SVG-20010904/DTD/svg10.dtd">
<svg version="1.0" xmlns="http://www.w3.org/2000/svg"
 width="700.000000pt" height="700.000000pt" viewBox="0 0 700.000000 700.000000"
 preserveAspectRatio="xMidYMid meet">
<metadata>
Created by potrace 1.11, written by Peter Selinger 2001-2013
</metadata>
<g transform="translate(0.000000,700.000000) scale(0.100000,-0.100000)"
fill="#000000" stroke="none">
<path d="M3298 6995 c-2 -1 -41 -5 -88 -9 -100 -7 -225 -22 -295 -36 -27 -5
-61 -12 -75 -14 -596 -109 -1206 -409 -1660 -817 -126 -114 -178 -166 -331
-335 -107 -118 -286 -370 -386 -545 -158 -274 -309 -656 -369 -932 -20 -90
-53 -272 -59 -322 -4 -33 -9 -69 -11 -80 -18 -95 -25 -522 -12 -690 8 -104 25
-233 42 -320 2 -11 6 -36 10 -55 49 -272 156 -595 283 -857 313 -646 812
-1179 1433 -1529 262 -148 448 -225 790 -328 95 -29 340 -79 440 -91 70 -8
122 -15 165 -22 22 -4 892 -8 1933 -10 l1893 -4 -4 1883 c-2 1036 -6 1906 -10
1933 -4 28 -9 66 -11 85 -10 89 -17 138 -20 156 -2 10 -11 60 -21 109 -200
1072 -924 2010 -1921 2491 -265 127 -624 243 -891 288 -48 8 -235 35 -293 41
-55 7 -526 16 -532 10z m572 -519 c14 -2 50 -7 80 -11 44 -5 183 -33 346 -70
65 -15 281 -90 361 -126 24 -10 45 -19 49 -19 3 0 67 -31 143 -69 374 -187
697 -441 960 -757 42 -50 83 -101 91 -114 8 -12 20 -28 25 -34 17 -17 145
-206 145 -212 0 -3 8 -18 19 -32 52 -74 184 -347 232 -481 50 -139 116 -370
133 -471 3 -19 8 -46 11 -60 3 -13 7 -40 10 -60 3 -20 7 -45 9 -56 20 -105 29
-532 14 -683 -106 -1054 -756 -1975 -1714 -2427 -63 -30 -118 -54 -121 -54 -3
0 -19 -7 -36 -15 -168 -78 -572 -179 -797 -200 -36 -3 -83 -8 -105 -10 -54 -6
-387 -6 -450 0 -224 20 -490 69 -645 120 -25 8 -66 21 -91 29 -91 29 -237 89
-364 151 -685 333 -1234 934 -1499 1642 -60 162 -126 405 -150 550 -32 194
-41 336 -24 378 31 79 86 122 169 132 80 10 122 -11 230 -110 99 -92 133 -122
164 -141 17 -11 36 -26 44 -34 54 -53 332 -207 465 -257 99 -37 263 -83 321
-91 28 -3 53 -8 56 -10 32 -19 356 -22 474 -4 44 6 96 14 115 16 69 10 227 54
322 89 593 220 1041 714 1202 1325 14 52 30 127 36 165 6 39 14 84 16 100 10
56 11 320 3 390 -13 101 -19 144 -30 195 -12 57 -57 209 -69 235 -5 11 -19 45
-30 75 -75 195 -240 446 -429 650 -33 36 -68 80 -77 99 -45 94 -4 207 96 262
31 17 50 19 150 15 63 -3 126 -7 140 -10z"/>
</g>
</svg>
